<?xml version="1.0" encoding="UTF-8" standalone="no"?>
<!-- Created with Inkscape (http://www.inkscape.org/) -->

<svg
   width="30mm"
   height="30mm"
   viewBox="0 0 30 30"
   version="1.1"
   id="svg5"
   xml:space="preserve"
   inkscape:version="1.2.1 (9c6d41e410, 2022-07-14)"
   sodipodi:docname="logo.svg"
   xmlns:inkscape="http://www.inkscape.org/namespaces/inkscape"
   xmlns:sodipodi="http://sodipodi.sourceforge.net/DTD/sodipodi-0.dtd"
   xmlns="http://www.w3.org/2000/svg"
   xmlns:svg="http://www.w3.org/2000/svg"><sodipodi:namedview
     id="namedview7"
     pagecolor="#505050"
     bordercolor="#eeeeee"
     borderopacity="1"
     inkscape:showpageshadow="0"
     inkscape:pageopacity="0"
     inkscape:pagecheckerboard="0"
     inkscape:deskcolor="#505050"
     inkscape:document-units="px"
     showgrid="false"
     inkscape:zoom="3.6203867"
     inkscape:cx="88.664561"
     inkscape:cy="58.55728"
     inkscape:window-width="1366"
     inkscape:window-height="705"
     inkscape:window-x="-8"
     inkscape:window-y="-8"
     inkscape:window-maximized="1"
     inkscape:current-layer="g15" /><defs
     id="defs2"><rect
       x="277.0014"
       y="1105.9689"
       width="266.81754"
       height="437.90665"
       id="rect23685" /><rect
       x="625.28998"
       y="1175.2192"
       width="54.992928"
       height="89.618103"
       id="rect22425" /></defs><g
     inkscape:label="Camada 1"
     inkscape:groupmode="layer"
     id="layer1"><g
       inkscape:label="Image"
       id="g15"
       transform="matrix(0.04080813,0,0,0.0523099,-13.606247,2.861445)"
       inkscape:transform-center-x="4.4499154"
       inkscape:transform-center-y="-0.22370096"><path
         style="fill:none;stroke:#000000;stroke-width:0.620601px;stroke-linecap:butt;stroke-linejoin:miter;stroke-opacity:1"
         d="M 547.92586,-113.84091 Z"
         id="path159" /><text
         xml:space="preserve"
         style="font-style:normal;font-variant:normal;font-weight:normal;font-stretch:normal;font-size:89.2636px;line-height:111.578px;font-family:oswald;-inkscape-font-specification:oswald;fill:#999999;stroke-width:2.0921"
         x="1044.9703"
         y="32.689934"
         id="text1964"
         transform="matrix(0.51376595,0.24728974,-0.73209883,1.5940322,0,0)"><tspan
           sodipodi:role="line"
           id="tspan1962"
           x="1044.9703"
           y="32.689934"
           style="font-style:normal;font-variant:normal;font-weight:normal;font-stretch:normal;font-size:89.2636px;font-family:oswald;-inkscape-font-specification:oswald;font-variant-ligatures:normal;font-variant-caps:normal;font-variant-numeric:normal;font-variant-east-asian:normal;fill:#999999;stroke-width:2.0921">Arch mochol</tspan></text><text
         xml:space="preserve"
         id="text22423"
         style="font-weight:bold;font-size:42.6667px;line-height:1.25;font-family:sans-serif;-inkscape-font-specification:'sans-serif Bold';white-space:pre;shape-inside:url(#rect22425);display:inline"
         transform="translate(-269.40473,-438.31722)" /><text
         xml:space="preserve"
         id="text23683"
         style="font-weight:bold;font-size:42.6667px;line-height:1.25;font-family:sans-serif;-inkscape-font-specification:'sans-serif Bold';white-space:pre;shape-inside:url(#rect23685);display:inline"
         transform="translate(-269.40473,-438.31722)" /><path
         style="opacity:0;fill:#1f241c;fill-opacity:0;stroke:#000000;stroke-width:2.03678;stroke-linecap:round;stroke-linejoin:round"
         d=""
         id="path35429" /><path
         style="opacity:0;fill:#1c241c;fill-opacity:0;stroke:#000000;stroke-width:2.03678;stroke-linecap:round;stroke-linejoin:round"
         d="m -449.65933,1438.8903 v -89.2989 l -15.785,-11.1577 c -8.68176,-6.1368 -33.94805,-24.2671 -56.14731,-40.2896 l -40.36233,-29.1318 -48.79846,10.5209 c -26.83918,5.7865 -50.29884,11.0966 -52.13261,11.8003 -3.06536,1.1762 -3.22342,-4.6999 -1.9607,-72.8986 0.7554,-40.7979 1.89113,-92.5089 2.52387,-114.9134 l 1.15043,-40.7355 -73.74759,-49.901 c -40.56117,-27.44556 -76.15011,-51.45136 -79.08651,-53.34626 -5.31191,-3.4278 -5.59679,-3.306 -56.25308,24.0604 -28.00279,15.1282 -67.18289,36.26836 -87.0669,46.97826 l -36.15276,19.4725 v 51.6863 c 0,30.4176 0.7776,51.6862 1.88969,51.6862 1.93016,0 146.88015,-59.9266 162.5799,-67.2154 l 8.65629,-4.0187 v 5.8659 c 0,3.2263 -1.14568,6.3309 -2.54597,6.8992 -1.40028,0.5683 -24.54314,10.1605 -51.42857,21.3161 -26.88543,11.1556 -64.21354,26.5716 -82.95137,34.2579 l -34.06876,13.9749 -0.55641,32.9214 -0.55641,32.9216 -28.10731,-23.4475 -28.1073,-23.4476 -33.8273,12.7211 c -18.605,6.9965 -36.8902,14.001 -40.6338,15.565 l -6.8066,2.844 V 180.88976 -852.80095 H 712.32088 2554.5839 V 337.69411 1528.1891 H 1052.4622 -449.65933 Z M 694.62526,815.40024 c 2.45111,-3.3153 4.45658,-6.8631 4.45658,-7.884 0,-1.021 2.73898,-11.3693 6.0866,-22.9962 3.34764,-11.627 5.27804,-21.4131 4.28977,-21.7468 -0.98826,-0.3338 -1.39001,-2.6252 -0.89282,-5.092 0.86292,-4.2812 0.7374,-4.256 -2.76219,0.554 -17.21802,23.6657 -24.09146,29.7936 -30.96961,27.6106 -4.11313,-1.3054 -2.31539,-5.4191 30.58059,-69.97445 19.22284,-37.7231 37.6892,-71.4964 41.0363,-75.0518 3.3471,-3.5553 6.4133,-9.2777 6.8137,-12.7164 0.6638,-5.7013 -0.1599,-6.7021 -9.3469,-11.3575 -5.5412,-2.808 -10.4455,-5.1053 -10.8985,-5.1053 -0.4531,0 -1.4591,4.7896 -2.2357,10.6435 -1.89464,14.2829 -65.51684,141.06925 -77.14546,153.73565 -4.32523,4.7112 -7.40981,9.2939 -6.85458,10.1838 0.55522,0.8899 11.08737,6.5827 23.40479,12.6506 14.68757,7.2355 22.04686,11.9405 21.38288,13.6708 -0.72579,1.8914 -7.29215,-0.5111 -23.19478,-8.4866 -23.42701,-11.7491 -26.32379,-12.6885 -26.32379,-8.5372 0,2.0458 42.38572,25.3347 46.97199,25.8089 0.6295,0.065 3.15001,-2.5942 5.60113,-5.9096 z m -62.91364,-38.384 c 18.42212,-14.805 43.89032,-54.07165 63.33688,-97.65225 12.12761,-27.1786 18.3875,-48.9438 18.00173,-62.5908 l -0.28902,-10.2248 -1.45872,8.1471 c -1.44686,8.081 -1.46106,8.0575 -1.74773,-2.8948 -0.44579,-17.0306 -8.59745,-22.7255 -22.34964,-15.614 -26.90107,13.9111 -76.16909,104.4197 -81.03275,148.86235 -0.73556,6.7214 -2.2329,13.3563 -3.32742,14.7443 -2.65292,3.3643 -0.0102,16.8821 4.2215,21.5962 4.59183,5.1149 15.17581,3.2367 24.64517,-4.3733 z m -47.76189,-15.1638 c 0.57292,-2.5205 2.00844,-9.1119 3.19004,-14.6476 2.68917,-12.5985 67.8695,-142.17345 76.38972,-151.85865 9.10782,-10.3532 8.59863,-14.7241 -2.33409,-20.0356 -4.98759,-2.4231 -9.84231,-4.4057 -10.78825,-4.4057 -0.94594,0 -2.31226,4.3536 -3.03628,9.6746 -1.37836,10.1302 -29.24803,65.8548 -33.67388,67.3301 -1.27985,0.4266 -4.56535,-0.6909 -7.3011,-2.4835 l -4.97411,-3.2591 14.5089,-27.9932 c 7.97988,-15.3962 16.96748,-30.7428 19.9724,-34.1034 8.59785,-9.6158 7.57069,-13.73 -4.96249,-19.87687 l -10.80574,-5.29965 -1.36203,10.26742 c -1.64769,12.4209 -30.2067,70.9204 -34.62282,70.9204 -4.52459,0 -16.94935,15.8159 -16.94935,21.5755 0,3.5269 0.87999,4.8053 2.80057,4.0683 1.54031,-0.5911 2.80057,-0.6311 2.80057,-0.089 0,4.8377 -26.52191,52.5725 -32.83976,59.1058 l -8.00862,8.28165 10.24031,4.7963 c 5.63217,2.638 10.24032,6.0145 10.24032,7.5034 0,3.548 -0.74707,3.4477 -10.18388,-1.3666 -9.29625,-4.7426 -12.22065,-5.0878 -12.22065,-1.4427 0,3.024 21.76526,14.2988 24.42717,12.6537 0.97119,-0.6002 2.41141,-6.2585 3.20048,-12.574 1.01865,-8.153 5.54478,-19.80835 15.60864,-40.19415 7.7957,-15.7914 14.4671,-29.0139 14.82536,-29.3835 0.53688,-0.5538 3.49562,1.052 12.84008,6.9686 2.14287,1.3567 -25.7562,52.0882 -32.45436,59.01465 l -8.00862,8.2818 10.24031,4.7963 c 5.63217,2.6379 10.24032,6.0144 10.24032,7.5033 0,3.548 -0.74707,3.4477 -10.18388,-1.3666 -9.52561,-4.8596 -12.22065,-5.0928 -12.22065,-1.0574 0,2.9056 16.71708,12.9888 21.85653,13.1832 1.37894,0.052 2.97591,-1.9674 3.54884,-4.4879 z m -60.23376,-41.75385 c 15.8916,-15.9186 32.55062,-44.1901 31.25216,-53.037 -0.52781,-3.5962 -1.58174,-6.5386 -2.34207,-6.5386 -0.76033,0 -4.86288,5.9497 -9.11679,13.2217 -10.62789,18.1681 -25.1218,34.0029 -30.40642,33.2195 -2.27722,-0.3376 -4.56024,-1.8871 -5.07336,-3.4433 -0.56572,-1.7156 -0.0271,-2.2696 1.36804,-1.4073 1.52078,0.9398 2.301,-0.7147 2.301,-4.8796 0,-14.9262 27.83461,-79.6533 47.89351,-111.3723 12.39931,-19.607 24.86994,-30.57379 25.69304,-22.5947 1.15165,11.164 0.66869,15.9514 -2.42116,24.0002 -4.32507,11.2665 -5.53098,19.2812 -2.9011,19.2812 1.07817,0 8.61519,-8.942 16.749,-19.8713 10.7535,-14.4492 14.78869,-21.5594 14.78869,-26.05811 0,-4.56002 -0.85589,-6.02953 -3.25489,-5.58842 -2.22762,0.40959 -4.33146,-2.29419 -6.66612,-8.56701 -3.24036,-8.70637 -3.84698,-9.19707 -12.11015,-9.79615 -8.33966,-0.60462 -9.26643,-0.0579 -22.43991,13.23904 -14.03356,14.16505 -28.00384,33.82375 -37.86299,53.28015 -8.97452,17.7106 -7.8889,10.8923 1.96899,-12.3664 5.03472,-11.879 10.97003,-28.6985 13.18954,-37.37671 4.23075,-16.54202 5.30918,-30.41203 2.21599,-28.50035 -1.00073,0.61849 -2.44922,-1.38452 -3.2189,-4.45115 -0.76967,-3.06661 -2.35449,-6.72647 -3.52182,-8.13302 -2.83371,-3.41441 -12.72142,-3.24263 -19.65222,0.34142 -18.91516,9.78143 -54.55542,66.66581 -71.56063,114.21581 -8.39985,23.4876 -10.87147,51.6937 -5.08964,58.0826 4.03964,4.4637 11.2708,5.219 17.58974,1.8372 5.83339,-3.1219 6.86192,-0.9966 1.2828,2.6507 -12.05971,7.884 -20.80513,4.7273 -23.95032,-8.645 l -1.66517,-7.0797 -0.20848,7.5053 c -0.29572,10.6457 2.755,17.2342 8.66713,18.718 14.69308,3.6878 35.72498,-17.2028 62.28553,-61.8669 14.09483,-23.7018 14.68285,-22.4138 2.44661,5.3591 -10.4344,23.6833 -14.5044,39.4974 -14.68443,57.0566 -0.10612,10.3409 -0.641,12.9066 -2.06212,9.8899 -1.41557,-3.005 -1.71085,-1.5359 -1.12556,5.6 0.99511,12.1324 3.98279,15.78605 12.90866,15.78605 5.8598,0 9.00539,-1.9665 18.73382,-11.71145 z m -103.63646,-50.9193 c 1.99054,-10.8002 9.71291,-28.161 36.01312,-80.9618 20.88528,-41.92973 35.72551,-69.30981 39.45063,-72.78604 6.22836,-5.81222 7.66382,-9.7034 3.57959,-9.7034 -1.31551,0 -0.41238,-2.10702 2.00694,-4.68226 l 4.39876,-4.68228 -11.30084,-5.54245 c -6.21547,-3.04834 -12.0316,-5.09082 -12.92475,-4.53883 -0.89314,0.552 -2.19,5.13381 -2.88191,10.18179 -0.99621,7.26828 -6.56532,17.13234 -26.76254,47.40224 -14.0275,21.02323 -25.50177,37.31133 -25.49839,36.19573 0.004,-1.1156 6.47684,-19.44285 14.38548,-40.72715 10.76354,-28.96763 16.00575,-40.3856 20.84726,-45.40709 4.80978,-4.98857 5.79656,-7.12329 3.84909,-8.32689 -2.05826,-1.27206 -1.90813,-2.20837 0.70143,-4.37409 2.95021,-2.44847 2.10967,-3.38252 -7.5415,-8.38044 -5.97398,-3.09365 -11.89085,-5.66806 -13.1486,-5.72091 -1.26396,-0.0532 -2.70735,4.28014 -3.22695,9.68776 -0.72945,7.59159 -8.59297,24.70567 -35.09449,76.37929 -30.18183,58.84962 -35.32802,67.65062 -44.24456,75.66742 l -10.09016,9.0719 10.54793,5.345 c 7.05005,3.5725 9.87076,6.0222 8.5059,7.3871 -1.36485,1.3648 -4.7972,0.6364 -10.3503,-2.1966 -9.61368,-4.9045 -12.54414,-5.2801 -12.54414,-1.6077 0,3.2722 22.4329,14.5142 24.4543,12.255 0.81041,-0.9058 2.59392,-7.5479 3.96338,-14.7603 1.6303,-8.5862 7.31386,-22.6497 16.46266,-40.7355 7.68502,-15.1921 14.02076,-26.4819 14.07946,-25.0885 0.0587,1.3935 -5.823,18.3317 -13.0704,37.6405 -8.50915,22.6704 -12.47753,35.8065 -11.20226,37.0817 2.99237,2.9924 2.39553,4.6486 -2.09873,5.8239 -4.81771,1.2598 -5.3443,4.5967 -0.98914,6.2679 2.25746,0.8663 9.99117,-9.1804 28.84507,-37.4717 14.16836,-21.2604 26.12569,-38.2902 26.57185,-37.844 2.05733,2.0573 -26.18069,53.8076 -32.84915,60.2009 -4.02666,3.8604 -7.32121,7.5991 -7.32121,8.3081 0,0.709 4.58275,3.4355 10.18388,6.0589 5.60113,2.6234 10.18387,5.988 10.18387,7.4769 0,3.5611 -0.73175,3.4556 -10.46248,-1.5087 -8.05467,-4.1092 -15.53084,-4.0169 -12.94945,0.1599 1.52141,2.4617 19.32753,11.9711 22.67212,12.1081 1.27343,0.052 3.45559,-6.0919 4.84923,-13.6534 z m -89.82274,-41.345 c 1.21304,-5.6562 2.20554,-11.605 2.20554,-13.2194 0,-5.2905 69.66048,-140.29829 75.71421,-146.74045 3.24759,-3.45598 6.34357,-8.70369 6.87994,-11.66155 0.86265,-4.75726 -0.19594,-5.97138 -9.17174,-10.5198 -5.58083,-2.828 -10.51113,-5.14184 -10.9562,-5.14184 -0.4451,0 -1.37014,4.09204 -2.05566,9.0934 -1.13068,8.24925 -30.2853,70.34083 -33.02798,70.34083 -0.60873,0 -3.80675,-1.39621 -7.10671,-3.10268 l -5.99996,-3.1027 13.43062,-26.93974 c 7.38683,-14.81686 16.12317,-29.76736 19.41409,-33.22334 3.2909,-3.45598 6.42232,-8.70369 6.95869,-11.66156 0.86265,-4.75725 -0.19594,-5.97137 -9.17175,-10.5198 -5.58082,-2.828 -10.57953,-5.14184 -11.10824,-5.14184 -0.52873,0 -1.60078,4.35361 -2.38238,9.67468 -0.82664,5.62792 -7.37324,21.58681 -15.65111,38.15326 -11.06946,22.15329 -16.27208,30.27603 -23.42383,36.57126 -5.05658,4.45098 -10.49682,11.21134 -12.08946,15.02305 -3.07946,7.37021 -2.13568,10.85694 1.85781,6.86346 6.83653,-6.83654 4.58439,0.16926 -7.90082,24.57709 -9.08458,17.75987 -16.54057,29.53457 -21.8064,34.43737 l -8.00176,7.4502 10.48672,5.314 c 5.76772,2.9227 10.48675,6.6734 10.48675,8.3349 0,3.97 -0.45178,3.8926 -12.28836,-2.1054 -9.22736,-4.6759 -10.11617,-4.8026 -10.11617,-1.4427 0,2.4531 3.84521,5.5694 11.51126,9.3292 13.39072,6.5674 14.08198,6.1023 16.18548,-10.8898 1.00908,-8.1513 5.28425,-18.74 15.6317,-38.7163 7.83352,-15.12307 14.35869,-27.65787 14.50039,-27.85513 0.14176,-0.19716 3.61937,0.69354 7.72812,1.97956 l 7.47046,2.33822 -14.39242,27.55365 c -9.1696,17.5548 -17.00958,29.8373 -21.60444,33.8466 l -7.212,6.2929 10.55041,5.7423 c 5.80274,3.1582 10.55042,6.9714 10.55042,8.4737 0,3.6522 -0.57706,3.5398 -12.28835,-2.3948 -9.23201,-4.6782 -10.11618,-4.804 -10.11618,-1.4396 0,2.4051 3.71693,5.5599 10.69307,9.0758 5.88119,2.9641 11.30453,5.4451 12.05189,5.5132 0.74733,0.068 2.35129,-4.5039 3.56435,-10.1602 z m -67.94847,-29.6955 c 6.20276,-4.0641 19.69391,-21.419 29.87917,-38.4362 4.9435,-8.25943 7.30868,-14.69641 7.29675,-19.85856 -0.0102,-4.20084 -0.7762,-7.6379 -1.7033,-7.6379 -0.92708,0 -5.10772,5.72843 -9.29032,12.72984 -9.2594,15.49976 -20.16544,29.34272 -25.26937,32.07422 -4.094,2.1911 -10.19315,0.773 -10.19315,-2.3699 0,-1.0665 0.91655,-1.3726 2.03678,-0.6803 1.2154,0.7512 2.03677,-1.7318 2.03677,-6.1572 0,-27.57615 60.12082,-143.31819 70.96396,-136.61676 3.73278,2.30698 3.83812,16.44421 0.19879,26.67781 -4.79744,13.49003 -6.93314,24.24874 -4.51722,22.75562 1.04735,-0.64731 8.82455,-10.61488 17.28267,-22.15015 15.67235,-21.37418 19.65644,-32.17549 11.86804,-32.17549 -2.32127,0 -4.32646,-2.76995 -5.96557,-8.24081 -9.61916,-32.10589 -49.36589,5.47632 -84.68691,80.07502 -14.84084,31.34413 -21.73374,53.93499 -22.074,72.34556 -0.15093,8.1646 -0.92164,13.2056 -1.71276,11.2023 -1.02247,-2.589 -1.47984,-1.6893 -1.58158,3.1111 -0.14685,6.9257 2.80397,14.4248 6.78126,17.2339 3.07891,2.1747 12.35231,0.2444 18.64999,-3.8821 z M 855.91348,476.5284 c 0,-65.34979 -0.6091,-154.48416 -1.3536,-198.07638 l -1.3537,-79.25862 -21.56,-15.04073 c -11.8581,-8.27242 -36.0896,-25.15171 -53.848,-37.50955 l -32.2878,-22.46878 -46.12801,10.68539 c -25.37038,5.87697 -48.1902,11.16961 -50.71071,11.76144 l -4.58274,1.07607 -0.0972,-115.807802 -0.0971,-115.80779 -78.16779,-48.882598 c -42.99229,-26.88544 -79.38139,-49.09598 -80.86465,-49.35679 -1.48328,-0.26079 -40.27539,18.52846 -86.20467,41.75389 l -83.50777,42.228068 -0.52995,92.1640796 c -0.29147,50.6902404 -1.0236,92.1640704 -1.62698,92.1640704 -0.60335,0 -12.12044,-9.8529 -25.5935,-21.89533 -13.47309,-12.04244 -25.35512,-22.20472 -26.40451,-22.58287 -2.16721,-0.78092 -130.21704,47.97746 -133.00325,50.64454 -1.91172,1.82998 1.54842,241.717532 3.5149,243.684022 0.61051,0.61052 17.1865,3.13276 36.83553,5.60498 19.64903,2.47224 36.09271,4.89441 36.5415,5.38262 2.95868,3.2186 -3.34188,17.65701 -16.24284,37.22211 -11.10126,16.83576 -14.99663,21.44372 -15.01797,17.76522 l -0.0288,-4.9668 -4.58275,4.87549 c -2.52051,2.68152 -7.48674,8.93293 -11.03606,13.89201 -5.37792,7.51397 -6.10212,9.78734 -4.34585,13.64195 1.83127,4.01919 0.15113,7.52114 -12.81903,26.71836 -8.20959,12.15111 -21.5434,28.77863 -29.6307,36.95005 l -14.704193,14.85714 11.062823,5.42572 c 7.31451,3.58737 11.06283,6.67378 11.06283,9.10927 0,3.35993 -0.88881,3.23318 -10.11618,-1.44267 -11.443743,-5.79898 -14.325123,-6.2909 -14.325123,-2.44559 0,2.58304 23.628323,15.24483 25.131893,13.46752 0.40589,-0.4798 2.28789,-7.17055 4.18223,-14.86833 1.89434,-7.69777 5.34458,-17.77981 7.66719,-22.40453 5.89712,-11.74207 18.32149,-32.20052 19.08913,-31.43288 0.35061,0.35061 -1.09664,7.91607 -3.21613,16.81215 -2.11949,8.89609 -3.3829,16.64539 -2.80761,17.22067 0.57528,0.57531 4.63411,-3.04109 9.01959,-8.03642 4.38548,-4.99531 8.01267,-8.44962 8.06044,-7.67622 0.0479,0.77341 -2.26816,8.1058 -5.14649,16.2942 -3.56254,10.13496 -7.51602,17.05771 -12.38347,21.68416 -3.93258,3.73789 -6.57499,7.37132 -5.87202,8.07431 0.70299,0.70297 5.57669,3.60228 10.83047,6.44289 5.25378,2.84059 9.87017,6.82089 10.25863,8.84508 0.60968,3.17684 -0.989,2.82454 -11.68602,-2.5753 -10.97339,-5.53935 -12.39233,-5.83591 -12.39233,-2.58992 0,2.48189 4.24924,5.76112 13.15783,10.15414 l 13.15781,6.48841 1.01002,-6.56045 c 0.55551,-3.60825 1.58241,-11.1432 2.282,-16.74433 1.04766,-8.38762 18.97629,-62.80539 22.65098,-68.75114 0.58309,-0.94347 2.39223,-0.60989 4.02033,0.74131 4.02031,3.33656 5.23775,1.47902 11.52075,-17.57817 4.96879,-15.07095 5.56539,-26.94091 1.21907,-24.25475 -2.86332,1.76965 -2.26169,-0.60006 5.68289,-22.38353 4.47968,-12.28299 10.20775,-23.74774 14.25742,-28.53638 3.72313,-4.40249 6.7553,-8.52696 6.73815,-9.16549 -0.0756,-2.81223 -3.59422,-6.00353 -11.17108,-10.13175 l -8.1471,-4.43889 7.12871,0.99953 c 3.92079,0.54975 27.15925,3.46512 51.64103,6.47863 l 44.51231,5.47909 74.63903,43.75026 c 41.05147,24.06262 81.51315,48.51755 89.91485,54.34427 8.4017,5.82673 37.03259,24.57858 63.62417,41.67077 l 48.34838,31.07671 73.85813,26.39416 73.85816,26.39412 50.9194,5.7808 c 28.0056,3.1795 54.3564,5.8951 58.5572,6.0348 l 7.6379,0.2541 z M 200.3968,588.01239 c 4.61507,-2.9134 11.70011,-6.4404 15.74453,-7.8377 7.22677,-2.4969 7.37688,-2.7736 8.70905,-16.0505 1.73641,-17.30561 6.34724,-37.48693 14.07974,-61.6262 5.04491,-15.74918 7.14085,-19.68523 11.75217,-22.06982 12.23819,-6.32863 28.3845,-27.97731 36.57747,-49.04241 4.73923,-12.18515 7.76471,-25.92047 4.73611,-21.50134 -1.43892,2.09959 -2.01486,-0.31613 -2.01486,-8.45097 0,-13.26154 -2.97225,-19.06484 -11.24062,-21.9472 -10.85128,-3.78278 -32.33877,4.67678 -30.42899,11.9798 1.4256,5.45153 -31.40947,70.09437 -34.91992,68.74729 -1.66374,-0.63843 -4.87942,2.12185 -8.0455,6.90611 -6.33965,9.57985 -6.39888,10.00654 -1.2005,8.64713 5.80872,-1.51901 5.0984,3.19458 -0.82053,5.44495 -5.97111,2.27021 -8.75093,6.18555 -4.39162,6.18555 1.74646,0 3.17538,0.47658 3.17538,1.05908 0,4.3909 -20.15131,39.70548 -26.72846,46.84086 l -8.20723,8.90378 10.33912,5.23924 c 5.68654,2.88158 10.33914,6.61406 10.33914,8.2944 0,2.43771 -2.04449,2.01913 -10.11617,-2.07108 -11.83859,-5.99908 -12.28835,-6.07596 -12.28835,-2.10042 0,1.66423 5.40816,5.75588 12.01815,9.09255 l 12.01813,6.0668 1.07473,-4.5099 c 0.59111,-2.4804 1.69904,-9.09254 2.46209,-14.69367 1.81037,-13.28894 25.5963,-59.1329 31.47899,-60.67126 2.24836,-0.58797 4.08793,-0.43866 4.08793,0.33179 0,2.14051 -21.01277,56.09937 -29.3616,75.39794 -4.0676,9.4023 -7.00253,17.4883 -6.52204,17.9688 0.48048,0.4804 4.39726,-1.3501 8.70394,-4.0678 4.30668,-2.7178 9.83591,-5.5774 12.28719,-6.3547 2.77631,-0.8803 4.77324,-3.4885 5.29596,-6.9171 0.77406,-5.07718 0.86276,-4.99807 1.14428,1.0204 0.27533,5.8862 -0.59985,6.9245 -8.94991,10.6182 -10.98482,4.8591 -21.29654,11.9121 -21.29654,14.5663 0,2.83 1.31557,2.4045 10.50874,-3.3989 z"
         id="path35468" /><path
         style="opacity:0;fill:#1c241c;fill-opacity:0;stroke:#000000;stroke-width:2.03678;stroke-linecap:round;stroke-linejoin:round"
         d="m 1199.9381,1093.6037 -57.0297,-6.6915 -71.0837,-25.6288 c -39.0961,-14.0958 -71.2964,-25.873 -71.5563,-26.1716 -0.56146,-0.645 -4.79476,-362.90341 -4.24776,-363.49621 0.9104,-0.9866 149.26146,-35.236 152.62466,-35.236 2.0624,0 27.5078,16.5658 56.5453,36.8128 l 52.7956,36.8128 v 118.66705 c 0,65.2669 0.607,153.1877 1.349,195.37946 0.8071,45.9002 0.6026,76.6182 -0.5092,76.4779 -1.022,-0.1289 -27.5216,-3.2456 -58.8879,-6.9259 z"
         id="path35874" /></g><path
       style="fill:#ffffff;stroke-width:0.173438"
       d="M 13.786697,15.812618 C 12.833251,15.191062 12.51184,14.879037 12.435376,14.500766 12.380201,14.227789 12.335044,11.885073 12.335044,9.2947281 V 4.5850097 l 1.290625,-0.7752548 1.290626,-0.7752547 0.115114,2.271854 c 0.06331,1.2495192 0.09063,4.3080895 0.0607,6.7968238 l -0.05441,4.524969 z"
       id="path361" /><path
       style="fill:#ffffff;stroke-width:0.173438"
       d="m 11.852408,12.667444 c 0,-0.332095 0.03589,-0.467952 0.07974,-0.301905 0.04385,0.166049 0.04385,0.437762 0,0.603809 -0.04385,0.166047 -0.07974,0.03019 -0.07974,-0.301904 z"
       id="path363" /><path
       style="fill:#b3b3b3;stroke-width:0.0613196"
       d="m 13.72326,15.861952 -1.326199,-0.866992 -0.03639,-1.95397 c -0.02002,-1.074684 -0.0439,-3.4336426 -0.05305,-5.2421297 L 12.290961,4.5107017 13.63709,3.7226106 c 0.740371,-0.4334514 1.353812,-0.7790188 1.363202,-0.7679293 0.113077,0.1335391 0.293551,12.8251497 0.19191,13.4957587 -0.02322,0.153176 -0.06482,0.278503 -0.09247,0.278503 -0.02765,0 -0.647051,-0.390146 -1.376462,-0.866991 z"
       id="path1136" /><path
       style="fill:#b3b3b3;stroke-width:0.0613196"
       d="m 16.90914,18.112117 c -0.166593,-0.108648 -0.46033,-0.312698 -0.652749,-0.453439 -0.410018,-0.299908 -0.382986,-0.18222 -0.482038,-2.098634 -0.06944,-1.343726 -0.08346,-8.5567177 -0.02138,-11.0056159 l 0.04036,-1.5920924 1.315745,0.9434637 1.315745,0.9434646 2.15e-4,0.9840947 c 1.18e-4,0.541252 0.02848,1.4222991 0.06301,1.9578815 0.03454,0.5355834 0.06746,1.1912369 0.07316,1.457007 0.0096,0.4481275 -0.001,0.4928988 -0.146219,0.616499 -0.09413,0.080119 -0.35658,0.1760278 -0.657943,0.2404508 l -0.501336,0.107173 0.03973,4.010988 c 0.02624,2.647939 0.01882,4.023786 -0.02184,4.048644 -0.03387,0.02072 -0.197885,-0.05124 -0.364479,-0.159885 z"
       id="path1138" /><path
       style="fill:#808080;stroke-width:0.0613196"
       d="m 11.419934,14.512693 c -0.111849,-0.0939 -0.134692,-0.216737 -0.189993,-1.021645 -0.03457,-0.503198 -0.09153,-1.752046 -0.126567,-2.775218 -0.03504,-1.0231701 -0.07416,-2.0306024 -0.08692,-2.2387374 l -0.02323,-0.3784287 0.355346,0.309473 c 0.522178,0.4547715 0.630166,0.6811169 0.664837,1.3935223 0.04958,1.0188088 -0.156398,4.1843958 -0.300591,4.6195438 -0.07524,0.227062 -0.116186,0.239851 -0.292893,0.09149 z"
       id="path1144" /><path
       style="fill:#999999;stroke-width:0.0613196"
       d="m 10.247442,14.409716 c -0.01573,-0.0467 -0.244064,-0.07147 -0.6830101,-0.07412 -0.5376136,-0.0032 -0.6789576,-0.02333 -0.7654451,-0.108829 -0.09554,-0.09445 -0.1100255,-0.354455 -0.1458717,-2.618765 -0.021892,-1.382647 -0.021892,-2.5310658 0,-2.5520423 0.03063,-0.029352 1.1818108,-0.4946394 1.8741629,-0.7575043 0.06808,-0.025851 0.09991,0.036907 0.131232,0.2587747 0.05783,0.4095684 0.04627,5.4376919 -0.01299,5.6568889 -0.05124,0.189496 -0.350568,0.336575 -0.398072,0.1956 z"
       id="path1146" /><path
       style="fill:#808080;stroke-width:0.0613196"
       d="m 13.801304,15.869576 c -0.661165,-0.434567 -1.241913,-0.814038 -1.290552,-0.843265 -0.07389,-0.0444 -0.09649,-0.563228 -0.137402,-3.155098 C 12.31289,8.0414791 12.31139,4.5768509 12.37025,4.5195615 12.3945,4.4959145 12.983042,4.145644 13.678112,3.7411783 l 1.263764,-0.7353923 0.04204,0.1980071 c 0.05629,0.2650572 0.09081,1.6858925 0.135941,5.5959583 0.02071,1.7947416 0.05541,3.9081766 0.07709,4.6965216 0.02167,0.788345 0.03374,1.501971 0.02681,1.585837 -0.0069,0.08387 -0.03159,0.465922 -0.05478,0.849012 -0.02319,0.383089 -0.0699,0.703739 -0.103815,0.712554 -0.0339,0.0088 -0.6026,-0.33953 -1.263764,-0.7741 z"
       id="path1148" /><path
       style="fill:#808080;stroke-width:0.0613196"
       d="m 16.655495,17.890547 c -0.311967,-0.208719 -0.599278,-0.41771 -0.638463,-0.464425 -0.03918,-0.04672 -0.09876,-0.257002 -0.13239,-0.467301 -0.07482,-0.467863 -0.135833,-12.813884 -0.06651,-13.4553362 l 0.04834,-0.4472599 1.171294,0.8351468 c 0.644212,0.4593307 1.219061,0.8801757 1.277443,0.9352099 0.09269,0.087375 0.106608,0.2431349 0.109734,1.2284487 0.0019,0.6206117 0.03256,1.668444 0.06797,2.3285147 0.06789,1.2652854 0.05257,1.384911 -0.19411,1.5155332 -0.06775,0.035878 -0.323721,0.1139948 -0.568821,0.1735998 l -0.445635,0.10837 -0.01454,3.655158 c -0.0079,2.010338 -0.02186,3.830359 -0.03082,4.044493 l -0.01629,0.389335 z"
       id="path1150" /><path
       style="fill:#808080;stroke-width:0.0613196"
       d="M 21.383886,20.047712 C 20.003719,19.68602 18.86241,19.160281 18.278431,18.617196 l -0.373396,-0.347251 -0.04348,-1.212704 c -0.02392,-0.66699 -0.05596,-1.679309 -0.07121,-2.249602 -0.07689,-2.874679 -0.101136,-3.611331 -0.123534,-3.751117 -0.04179,-0.260868 0.06204,-0.455971 0.250237,-0.470287 0.09279,-0.0071 0.737409,-0.173948 1.43248,-0.370867 l 1.263764,-0.3580315 0.308236,0.2384455 c 0.169529,0.131145 0.647889,0.511226 1.063023,0.844624 l 0.75479,0.606179 -0.03611,2.209967 c -0.07316,4.476844 -0.183167,6.195505 -0.405523,6.334989 -0.121505,0.07622 -0.530606,0.0566 -0.913832,-0.04383 z"
       id="path1152" /><path
       style="fill:#999999;stroke-width:0.080181"
       d="M 11.440116,14.415099 C 11.31226,14.224454 11.242096,13.253102 11.090934,9.5809643 l -0.055,-1.3359972 0.194272,0.1231417 c 0.106853,0.067728 0.30444,0.2735406 0.439093,0.4573617 l 0.244821,0.3342201 -0.0069,1.7452114 c -0.0066,1.67426 -0.134175,3.344381 -0.273836,3.585294 -0.0535,0.09227 -0.09073,0.07781 -0.193276,-0.07509 z"
       id="path1397" /><path
       style="fill:#999999;stroke-width:0.080181"
       d="m 13.750879,15.781603 c -0.952535,-0.621529 -1.189475,-0.8132 -1.241667,-1.00444 -0.03547,-0.129986 -0.07371,-2.487401 -0.08497,-5.2386971 l -0.02047,-5.0023583 1.224106,-0.71832 c 0.67326,-0.3950759 1.246191,-0.7065018 1.273182,-0.6920573 0.08365,0.044765 0.139124,1.7842138 0.209544,6.5701477 0.08483,5.765698 0.06542,6.853827 -0.122275,6.853827 -0.03315,0 -0.590004,-0.345646 -1.237445,-0.768102 z"
       id="path1399" /><path
       style="fill:#999999;stroke-width:0.080181"
       d="m 16.554838,17.770423 c -0.275296,-0.192627 -0.531555,-0.413149 -0.569466,-0.490051 -0.126875,-0.25736 -0.207106,-13.9801285 -0.08244,-14.1004757 0.07623,-0.073598 2.34547,1.6460806 2.419224,1.8333493 0.04153,0.1054373 0.0919,0.909693 0.111937,1.7872359 0.05496,2.4065219 0.04804,2.8414579 -0.04699,2.9519821 -0.04788,0.055689 -0.312018,0.1680144 -0.586981,0.2496124 l -0.499932,0.148361 -0.02509,2.589092 c -0.03203,3.305381 -0.09592,5.386403 -0.165269,5.383446 -0.02996,-0.0013 -0.279705,-0.159925 -0.554999,-0.352552 z"
       id="path1401" /><path
       style="fill:#999999;stroke-width:0.080181"
       d="m 20.777487,19.815961 c -1.049751,-0.341856 -1.971022,-0.804367 -2.470606,-1.240333 l -0.380633,-0.332162 -0.09112,-3.426912 c -0.05011,-1.884804 -0.109745,-3.540777 -0.132524,-3.679943 -0.04513,-0.275788 0.174962,-0.574157 0.423534,-0.574157 0.07276,0 0.643949,-0.144862 1.269316,-0.321915 0.625366,-0.177054 1.181621,-0.3053967 1.236123,-0.2852071 0.05451,0.02019 0.549161,0.3965261 1.099242,0.8363021 l 1.000146,0.799594 -0.04175,1.04151 c -0.02296,0.57283 -0.06193,2.047434 -0.0866,3.276896 -0.04692,2.33876 -0.15068,3.787846 -0.289091,4.03751 C 22.19,20.169951 21.74877,20.132269 20.777475,19.815961 Z"
       id="path1403" /></g></svg>
